# xmcd CD database file
#
# Track frame offsets:
#	150
#	20349
#	31989
#	49842
#	69062
#	82301
#	103687
#	121348
#	151932
#	172629
#	190275
#	211322
#	227923
#	241879
#
# Disc length: 3526 seconds
#
# Revision: 0
# Processed by: cddbd v1.5.2PL0 Copyright (c) Steve Scherf et al.
# Submitted via: CDex 1.51
#
DISCID=ad0dc40e
DTITLE=David Newsam and Emily Musty - Songs In The Key Of Em
DYEAR=2005
DGENRE=Jazz
TTITLE0=You Call It Madness
TTITLE1=I Love Being Here With You
TTITLE2=S'Wonderful
TTITLE3=Gee Baby
TTITLE4=How High The Moon
TTITLE5=(Just A) Garden In The Rain
TTITLE6=Maya The Bee
TTITLE7=Fragile
TTITLE8=Let's Fall In Love
TTITLE9=Ain't No Sunshine
TTITLE10=The Nearness Of You
TTITLE11=The Lady Is A Tramp
TTITLE12=Danny
TTITLE13=Autumn Leaves
EXTD=YEAR: 2005
EXTT0=
EXTT1=
EXTT2=
EXTT3=
EXTT4=
EXTT5=
EXTT6=
EXTT7=
EXTT8=
EXTT9=
EXTT10=
EXTT11=
EXTT12=
EXTT13=
PLAYORDER=
